<?xml version="1.0" encoding="UTF-8"?>
<svg id="Layer_2" data-name="Layer 2" xmlns="http://www.w3.org/2000/svg" viewBox="0 0 123.84 90.94">
  <defs>
    <style>
      .cls-1 {
        fill: #00b5e1;
      }

      .cls-2 {
        fill: #0c6a8f;
      }
    </style>
  </defs>
  <g id="Layer_1-2" data-name="Layer 1">
    <g>
      <g>
        <rect class="cls-2" x="60.83" y="12" width="3.5" height="3.5"/>
        <rect class="cls-2" x="65.83" y="12" width="3.5" height="3.5"/>
        <rect class="cls-2" x="60.83" y="16.46" width="3.5" height="3.5"/>
        <rect class="cls-2" x="65.83" y="16.46" width="3.5" height="3.5"/>
        <polygon class="cls-2" points="64.34 0 44.2 13.75 44.2 17.08 64.34 3.42 84.48 17.08 84.48 13.75 64.34 0"/>
        <path class="cls-1" d="M50.28,5.25c-2.19.6-2.68,1.09-3.28,3.28-.6-2.19-1.09-2.68-3.28-3.28,2.19-.6,2.68-1.09,3.28-3.28.6,2.19,1.09,2.68,3.28,3.28Z"/>
        <path class="cls-1" d="M38.62,17.26c-1.55.43-1.9.78-2.33,2.33-.43-1.55-.78-1.9-2.33-2.33,1.55-.43,1.9-.78,2.33-2.33.43,1.55.78,1.9,2.33,2.33Z"/>
        <path class="cls-1" d="M39.21,32.56c-1.95.54-2.38.97-2.92,2.92-.54-1.95-.97-2.38-2.92-2.92,1.95-.54,2.38-.97,2.92-2.92.54,1.95.97,2.38,2.92,2.92Z"/>
        <path class="cls-1" d="M56.93,22.13c-1.44.4-1.77.72-2.16,2.16-.4-1.44-.72-1.77-2.16-2.16,1.44-.4,1.77-.72,2.16-2.16.4,1.44.72,1.77,2.16,2.16Z"/>
        <path class="cls-1" d="M70.3,29.64c-1.03.28-1.26.51-1.54,1.54-.28-1.03-.51-1.26-1.54-1.54,1.03-.28,1.26-.51,1.54-1.54.28,1.03.51,1.26,1.54,1.54Z"/>
        <path class="cls-1" d="M75.44,22.29h-9.44v-.7h9.27c.03.24.09.48.17.7Z"/>
        <path class="cls-1" d="M75.42,20.07s-.02.06-.03.09c-.06.2-.1.4-.13.6l-4.76-1.5v-.74l4.92,1.55Z"/>
        <path class="cls-1" d="M76.29,18.87l-.02.04c-.19.14-.35.3-.49.48l-5.28-3.06v-.81l5.79,3.36Z"/>
        <path class="cls-2" d="M80.23,25.25c-.24,1.28-1.1,4.26-3.94,5.38l-.73-.99s3.51-2.17,3.57-5.84c0,0,.07-.33-.92-.46-.82-.11-2.19-1.24-1.71-2.85.18-.6.8-.97,1.42-.88l10.79,1.52c.48.07.89.4,1.05.86l1.14,3.23c.18.51.03,1.07-.37,1.42-1.27,1.12-3.85,3.88-3.46,7.66.53,4.99,2.3,10.05,3.09,11.49s0,3.28-1.9,3.15l-13.4-1.9s-2.5-.79-1.18-3.55,6.04-8.8,7.09-10.94c.99-2.01,1.92-4.91-.04-7.43-.15-.19-.46-.12-.5.12Z"/>
        <path class="cls-2" d="M44.02,21.5c-.24-.46-.53-1.12-.57-1.23-.28-.63-.53-1.28-.75-1.94-.77-2.29-1.26-4.68-1.63-7.06-.33-2.09-.55-4.2-.71-6.3-.05-.69-.09-1.38-.12-2.06-.02-.5-.1-2.15-.98-1.68-.81.43-.66,1.3-.67,2.07-.01.58-.01,1.15,0,1.73.07,2.97.49,5.93,1.17,8.81.5,2.09,1.14,4.16,1.93,6.16.04.1.48,1.27.77,1.9-3.69,1.57-3.23,7.03-3.23,7.03l10.24-2.63s-1.2-5.17-5.43-4.79Z"/>
        <path class="cls-1" d="M80.89,49.92c-1.62,1.57-7.8,6.76-17.78,5.86-11.74-1.05-20.4-9.72-22.51-18.65,0,0,12.02,22.32,34.94,12.03l5.35.76Z"/>
        <path class="cls-1" d="M73.54,48.63c-17.24,6.59-29.34-8.52-29.34-8.52,2.98-.7,6.83-2.1,6.83-2.1,8.82,8.66,19.04,5.19,20.96,4.43-.04.07-.07.14-.1.21-.85,1.78-.6,3.14-.24,3.96.47,1.07,1.29,1.69,1.9,2.03Z"/>
        <path class="cls-1" d="M77.09,34.66c-.33.48-.68.98-1.02,1.47-.34.48-.68.97-1.01,1.45,0,0,0,.01-.01.02-.66.89-1.27,1.75-1.54,2.28,0,0,0,0,0,0-.04.08-.08.16-.11.23,0,0-.02.01-.06.04h0c-.91.49-11.12,5.64-20.72-3.01,0,0,3.14-.96,4.33-2.19,0,0,11.38,5.44,20.15-.28Z"/>
        <path class="cls-2" d="M45.38,38.38h-2.01c-2.8-2.77-3.53-6.86-3.71-8.39l1.07-.3c1.15,5.08,4.65,8.69,4.65,8.69Z"/>
        <path class="cls-2" d="M48.09,37.13l-1.92.87c-3.42-2.96-4.43-7.05-4.69-8.52l1.84-.52c.47,4.51,4.77,8.17,4.77,8.17Z"/>
        <path class="cls-2" d="M50.77,36.21l-1.8.75c-3.49-2.42-4.71-6.52-5.08-8.15l1.6-.45c1.15,5.23,5.28,7.85,5.28,7.85Z"/>
        <path class="cls-2" d="M53.65,35.03l-2.28.92c-3.72-2.93-4.96-6.34-5.33-7.74l1.69-.47c.77,4.72,5.92,7.3,5.92,7.3Z"/>
        <path class="cls-2" d="M55.76,33.93l-1.36.73c-4.94-2.48-5.88-5.75-6.05-7.1l1.22-.34c1.24,4.87,6.19,6.71,6.19,6.71Z"/>
      </g>
      <g>
        <path class="cls-2" d="M13.66,77.88H5.48l-1.57,4.45H0l6.22-16.62c.71-1.88,1.52-2.59,3.28-2.59s2.84.71,3.55,2.59l6.27,16.62h-4.01l-1.64-4.45ZM6.75,74.26h5.58l-2.52-6.9c-.07-.17-.15-.27-.32-.27-.15,0-.24.1-.29.27l-2.45,6.9Z"/>
        <path class="cls-2" d="M26.88,82.33c-2.01,0-3.18-1.17-3.18-3.18v-15.91h3.79v14.76c0,.44.27.71.71.71h7.81v3.62h-9.13Z"/>
        <path class="cls-2" d="M46.7,75.87v6.46h-3.79v-6.39c-.61-.37-1.1-.93-1.42-1.59l-5.24-11.11h4.38l3.7,8.35c.15.34.32.39.51.39s.37-.07.51-.39l3.62-8.35h4.26l-5.29,11.16c-.29.61-.73,1.13-1.25,1.47Z"/>
        <path class="cls-2" d="M67.46,77.88h-8.17l-1.57,4.45h-3.92l6.22-16.62c.71-1.88,1.52-2.59,3.28-2.59s2.84.71,3.55,2.59l6.27,16.62h-4.01l-1.64-4.45ZM60.56,74.26h5.58l-2.52-6.9c-.07-.17-.15-.27-.32-.27-.15,0-.24.1-.29.27l-2.45,6.9Z"/>
        <path class="cls-2" d="M75.89,76.29h4.06c.54,2.03,2.03,2.81,4.09,2.81,2.2,0,3.84-.78,3.84-2.4,0-1.2-.73-1.79-2.15-1.93l-3.82-.42c-3.13-.34-5.43-2.3-5.43-5.43,0-3.62,3.06-5.92,7.27-5.92,3.92,0,7.02,2.03,7.73,5.73h-4.06c-.64-1.59-1.91-2.23-3.77-2.23-2.2,0-3.35,1-3.35,2.28,0,1.15.91,1.81,2.15,1.93l3.77.39c3.21.34,5.51,2.11,5.51,5.29,0,3.55-2.89,6.19-7.69,6.19-4.21,0-7.37-1.71-8.15-6.29Z"/>
        <path class="cls-2" d="M97.16,63.24h3.79v19.09h-3.79v-19.09Z"/>
        <path class="cls-2" d="M115.2,75.8h-3.79v6.54h-3.79v-15.91c0-1.86,1.32-3.18,3.18-3.18h6.09c3.65,0,6.46,2.42,6.46,6.31,0,2.77-1.91,4.67-4.28,5.61l4.77,7.17h-4.48l-4.16-6.54ZM111.4,72.22h5.48c1.44,0,2.62-.95,2.62-2.67s-1.17-2.69-2.62-2.69h-4.77c-.42,0-.71.34-.71.71v4.65Z"/>
      </g>
      <g>
        <path class="cls-1" d="M13.41,86.16v.77h-1.26v3.97h-.95v-3.97h-1.26v-.77h3.47Z"/>
        <path class="cls-1" d="M15.56,86.93v1.19h1.59v.75h-1.59v1.25h1.8v.77h-2.75v-4.74h2.75v.77h-1.8Z"/>
        <path class="cls-1" d="M18.81,87.27c.21-.37.5-.66.86-.86.36-.21.77-.31,1.22-.31.53,0,.99.14,1.39.41s.68.65.83,1.13h-1.09c-.11-.23-.26-.4-.46-.51s-.42-.17-.68-.17c-.28,0-.52.06-.74.19s-.38.31-.5.55-.18.51-.18.83.06.59.18.82.29.42.5.55.46.19.74.19c.26,0,.48-.06.68-.17.2-.12.35-.29.46-.51h1.09c-.16.48-.44.86-.83,1.13-.4.27-.86.4-1.39.4-.45,0-.86-.1-1.22-.31-.36-.21-.65-.49-.86-.86s-.32-.78-.32-1.25.1-.88.32-1.25Z"/>
        <path class="cls-1" d="M28.37,86.16v4.73h-.95v-2.01h-2.03v2.01h-.95v-4.73h.95v1.95h2.03v-1.95h.95Z"/>
        <path class="cls-1" d="M33.86,90.9h-.95l-2.15-3.25v3.25h-.95v-4.74h.95l2.15,3.25v-3.25h.95v4.74Z"/>
        <path class="cls-1" d="M36.26,86.16v4.73h-.95v-4.73h.95Z"/>
        <path class="cls-1" d="M37.79,87.27c.21-.37.5-.66.86-.86.36-.21.77-.31,1.22-.31.53,0,.99.14,1.39.41s.68.65.83,1.13h-1.09c-.11-.23-.26-.4-.46-.51s-.42-.17-.68-.17c-.28,0-.52.06-.74.19s-.38.31-.5.55-.18.51-.18.83.06.59.18.82.29.42.5.55.46.19.74.19c.26,0,.48-.06.68-.17.2-.12.35-.29.46-.51h1.09c-.16.48-.44.86-.83,1.13-.4.27-.86.4-1.39.4-.45,0-.86-.1-1.22-.31-.36-.21-.65-.49-.86-.86s-.32-.78-.32-1.25.1-.88.32-1.25Z"/>
        <path class="cls-1" d="M46.32,89.99h-1.89l-.31.9h-1l1.7-4.74h1.11l1.7,4.74h-1l-.31-.9ZM46.06,89.23l-.69-1.98-.68,1.98h1.37Z"/>
        <path class="cls-1" d="M49.73,90.14h1.56v.75h-2.51v-4.73h.95v3.98Z"/>
        <path class="cls-1" d="M55.27,90.77c-.26-.11-.47-.28-.63-.49-.15-.21-.23-.46-.24-.75h1.02c.01.19.08.35.21.46.12.11.3.17.51.17s.4-.05.52-.16c.13-.11.19-.25.19-.42,0-.14-.04-.26-.13-.35-.09-.09-.19-.16-.32-.21s-.31-.11-.53-.17c-.31-.09-.56-.18-.75-.27-.19-.09-.36-.22-.5-.4-.14-.18-.21-.42-.21-.72,0-.28.07-.52.21-.73s.34-.37.59-.48c.25-.11.54-.17.87-.17.49,0,.88.12,1.19.36s.47.57.51.99h-1.04c0-.16-.08-.3-.21-.4s-.3-.16-.51-.16c-.19,0-.33.05-.44.14-.11.09-.17.23-.17.41,0,.13.04.23.13.32.08.08.19.15.31.2.12.05.3.11.53.18.31.09.56.18.75.27.19.09.36.23.5.41s.21.42.21.71c0,.25-.07.49-.2.71-.13.22-.32.39-.58.52-.25.13-.55.19-.9.19-.33,0-.63-.06-.89-.17Z"/>
        <path class="cls-1" d="M60.12,86.93v1.19h1.59v.75h-1.59v1.25h1.8v.77h-2.75v-4.74h2.75v.77h-1.8Z"/>
        <path class="cls-1" d="M65.72,90.9l-1.04-1.84h-.45v1.84h-.95v-4.73h1.78c.37,0,.68.06.94.19s.45.3.58.52c.13.22.19.46.19.74,0,.31-.09.59-.27.84-.18.25-.45.42-.81.52l1.13,1.92h-1.1ZM64.23,88.34h.79c.26,0,.45-.06.58-.19.13-.12.19-.3.19-.52s-.06-.39-.19-.51c-.13-.12-.32-.18-.58-.18h-.79v1.39Z"/>
        <path class="cls-1" d="M72.39,86.16l-1.74,4.73h-1.15l-1.74-4.73h1.02l1.3,3.76,1.29-3.76h1.01Z"/>
        <path class="cls-1" d="M74.42,86.16v4.73h-.95v-4.73h.95Z"/>
        <path class="cls-1" d="M75.95,87.27c.21-.37.5-.66.86-.86.36-.21.77-.31,1.22-.31.53,0,.99.14,1.39.41s.68.65.83,1.13h-1.09c-.11-.23-.26-.4-.46-.51s-.42-.17-.68-.17c-.28,0-.52.06-.74.19s-.38.31-.5.55-.18.51-.18.83.06.59.18.82.29.42.5.55.46.19.74.19c.26,0,.48-.06.68-.17.2-.12.35-.29.46-.51h1.09c-.16.48-.44.86-.83,1.13-.4.27-.86.4-1.39.4-.45,0-.86-.1-1.22-.31-.36-.21-.65-.49-.86-.86s-.32-.78-.32-1.25.1-.88.32-1.25Z"/>
        <path class="cls-1" d="M82.53,86.93v1.19h1.59v.75h-1.59v1.25h1.8v.77h-2.75v-4.74h2.75v.77h-1.8Z"/>
        <path class="cls-1" d="M86.44,90.77c-.26-.11-.47-.28-.63-.49-.15-.21-.23-.46-.24-.75h1.02c.01.19.08.35.21.46.12.11.3.17.51.17s.4-.05.52-.16c.13-.11.19-.25.19-.42,0-.14-.04-.26-.13-.35-.09-.09-.19-.16-.32-.21s-.31-.11-.53-.17c-.31-.09-.56-.18-.75-.27-.19-.09-.36-.22-.5-.4-.14-.18-.21-.42-.21-.72,0-.28.07-.52.21-.73s.34-.37.59-.48c.25-.11.54-.17.87-.17.49,0,.88.12,1.19.36s.47.57.51.99h-1.04c0-.16-.08-.3-.21-.4s-.3-.16-.51-.16c-.19,0-.33.05-.44.14-.11.09-.17.23-.17.41,0,.13.04.23.13.32.08.08.19.15.31.2.12.05.3.11.53.18.31.09.56.18.75.27.19.09.36.23.5.41s.21.42.21.71c0,.25-.07.49-.2.71-.13.22-.32.39-.58.52-.25.13-.55.19-.9.19-.33,0-.63-.06-.89-.17Z"/>
        <path class="cls-1" d="M93.41,90.14h1.56v.75h-2.51v-4.73h.95v3.98Z"/>
        <path class="cls-1" d="M96.08,90.78c-.11-.11-.17-.24-.17-.4s.06-.29.17-.4.25-.16.42-.16.31.05.41.16.16.24.16.4-.05.29-.16.4c-.11.11-.25.16-.41.16s-.31-.05-.42-.16Z"/>
        <path class="cls-1" d="M99.3,90.14h1.56v.75h-2.51v-4.73h.95v3.98Z"/>
        <path class="cls-1" d="M101.97,90.78c-.11-.11-.17-.24-.17-.4s.06-.29.17-.4.25-.16.42-.16.31.05.41.16.16.24.16.4-.05.29-.16.4c-.11.11-.25.16-.41.16s-.31-.05-.42-.16Z"/>
        <path class="cls-1" d="M104.33,87.27c.21-.37.5-.66.86-.86.36-.21.77-.31,1.22-.31.53,0,.99.14,1.39.41s.68.65.83,1.13h-1.09c-.11-.23-.26-.4-.46-.51s-.42-.17-.68-.17c-.28,0-.52.06-.74.19s-.38.31-.5.55-.18.51-.18.83.06.59.18.82.29.42.5.55.46.19.74.19c.26,0,.48-.06.68-.17.2-.12.35-.29.46-.51h1.09c-.16.48-.44.86-.83,1.13-.4.27-.86.4-1.39.4-.45,0-.86-.1-1.22-.31-.36-.21-.65-.49-.86-.86s-.32-.78-.32-1.25.1-.88.32-1.25Z"/>
      </g>
    </g>
  </g>
</svg>