<?xml version="1.0" encoding="UTF-8"?>
<svg id="Layer_2" xmlns="http://www.w3.org/2000/svg" version="1.1" viewBox="0 0 52.21 52.21">
  <!-- Generator: Adobe Illustrator 29.5.1, SVG Export Plug-In . SVG Version: 2.1.0 Build 141)  -->
  <defs>
    <style>
      .st0 {
        fill: #c9a861;
      }
    </style>
  </defs>
  <polygon class="st0" points="32.91 2.12 32.91 21.73 24.27 16.52 24.27 7.09 32.91 2.12"/>
  <path class="st0" d="M24.14,16.52v33.57c-1.45-.11-2.86-.33-4.23-.67v-12.01l-4.1-2.45v-13.17s8.33-5.27,8.33-5.27Z"/>
  <path class="st0" d="M15.81,34.96v13.09c-1.37-.59-2.68-1.29-3.92-2.1v-8.66s3.92-2.33,3.92-2.33Z"/>
  <path class="st0" d="M40.32,26.33v19.63c-3.38,2.2-7.3,3.64-11.52,4.07v-17.57l3.98-2.51s.12-8.08.12-8.21l7.41,4.6h.01Z"/>
</svg>