<?xml version="1.0" encoding="UTF-8"?>
<svg id="Layer_2" data-name="Layer 2" xmlns="http://www.w3.org/2000/svg" viewBox="0 0 52.21 52.21">
  <defs>
    <style>
      .cls-1 {
        fill: #fff;
      }

      .cls-2 {
        fill: #00a2e5;
      }
    </style>
  </defs>
  <g id="Layer_1-2" data-name="Layer 1">
    <g>
      <path class="cls-2" d="M52.21,26.1c0,9.18-4.73,17.24-11.89,21.9-3.38,2.2-7.3,3.64-11.52,4.07-.89.09-1.79.14-2.7.14-.66,0-1.31-.02-1.96-.07-1.45-.11-2.86-.33-4.23-.67-1.42-.34-2.79-.8-4.1-1.37-1.37-.59-2.68-1.29-3.92-2.1C4.73,43.35,0,35.28,0,26.1,0,11.69,11.69,0,26.11,0s26.1,11.69,26.1,26.1Z"/>
      <g>
        <polygon class="cls-1" points="32.91 4.17 32.91 23.78 24.27 18.57 24.27 9.14 32.91 4.17"/>
        <path class="cls-1" d="M24.14,18.57v33.57c-1.45-.11-2.86-.33-4.23-.67v-12.01l-4.1-2.45v-13.17l8.33-5.27Z"/>
        <path class="cls-1" d="M15.81,37.01v13.09c-1.37-.59-2.68-1.29-3.92-2.1v-8.66l3.92-2.33Z"/>
        <path class="cls-1" d="M40.32,28.38v19.63c-3.38,2.2-7.3,3.64-11.52,4.07v-17.57l3.98-2.51s.12-8.08.12-8.21l7.41,4.6Z"/>
      </g>
    </g>
  </g>
</svg>