<?xml version="1.0" encoding="UTF-8"?>
<svg id="Layer_2" data-name="Layer 2" xmlns="http://www.w3.org/2000/svg" viewBox="0 0 156.5 20.87">
  <defs>
    <style>
      .cls-1 {
        fill: #005baa;
      }
    </style>
  </defs>
  <g id="Layer_1-2" data-name="Layer 1">
    <g>
      <g>
        <path class="cls-1" d="M.29.65C.12.46.05.38,0,.26h3.79c.03.08.12.24.27.39l2.89,3.15c.07.07.14.12.24.12s.17-.05.24-.12l2.88-3.15c.15-.15.26-.31.29-.39h3.73c-.07.12-.14.2-.31.39l-5.39,5.95v5.16h-3.11v-5.36L.29.65Z"/>
        <path class="cls-1" d="M26.27,11.25c.08.19.14.34.19.51h-3.47c-.03-.15-.08-.27-.14-.39l-.61-1.39h-6.81l-.6,1.38c-.05.14-.1.27-.12.41h-3.56c.05-.17.1-.32.19-.51L15.46,2.13c.65-1.43,1.68-2.13,3.33-2.13s2.67.7,3.32,2.13l4.15,9.12ZM21.11,7.44l-1.77-4.12c-.1-.26-.31-.36-.53-.36-.2,0-.39.08-.51.36l-1.75,4.12h4.56Z"/>
        <path class="cls-1" d="M39.69,3.3h-8.27c-.37,0-.58.08-.71.22-.15.15-.24.36-.24.6,0,.25.12.48.29.61.14.12.31.17.66.17h5.05c1.29,0,2.16.41,2.77,1.04.61.63.99,1.48.99,2.38,0,.83-.32,1.63-.85,2.25-.63.73-1.55,1.19-2.91,1.19h-8.92v-2.94h8.37c.48,0,.71-.1.87-.29.12-.14.19-.32.19-.53,0-.24-.08-.46-.24-.61-.15-.17-.37-.26-.82-.26h-4.68c-1.53,0-2.42-.41-3.03-1.04-.61-.63-.97-1.46-.97-2.4s.37-1.77.99-2.4c.61-.63,1.48-1.04,3.01-1.04h8.44v3.04Z"/>
        <path class="cls-1" d="M44.59.26v11.5h-3.1V.26h3.1Z"/>
        <path class="cls-1" d="M49.39,11.76h-3.08V.97c0-.48.25-.71.77-.71h8.17c1.41,0,2.31.42,2.94,1.09.56.6.92,1.39.92,2.26,0,.92-.27,1.79-1.09,2.38.77.46,1.11,1.07,1.11,2.38v2.3c0,.49.02.77.05,1.09h-3.11c-.03-.25-.05-.51-.05-.77v-2.3c0-.73-.36-1.02-1.26-1.02h-5.36v4.08ZM54.83,5.05c.43,0,.68-.15.87-.37.14-.17.22-.38.22-.6,0-.24-.08-.48-.25-.65-.17-.19-.44-.31-.83-.31h-5.19c-.17,0-.26.1-.26.25v1.67h5.44Z"/>
        <path class="cls-1" d="M82.07,11.25c.08.19.14.34.19.51h-3.47c-.03-.15-.08-.27-.14-.39l-.61-1.39h-6.81l-.6,1.38c-.05.14-.1.27-.12.41h-3.56c.05-.17.1-.32.19-.51l4.12-9.12c.65-1.43,1.68-2.13,3.33-2.13s2.67.7,3.32,2.13l4.15,9.12ZM76.92,7.44l-1.77-4.12c-.1-.26-.31-.36-.53-.36-.2,0-.39.08-.51.36l-1.75,4.12h4.56Z"/>
        <path class="cls-1" d="M86.41,11.76c-2.82,0-3.74-1.24-3.74-3.74V.26h3.1v7.47c0,.83.22,1.09,1.02,1.09h7.98v2.94h-8.35Z"/>
        <path class="cls-1" d="M110.23,9.53c0,1.74-1.04,2.47-2.16,2.47-.97,0-1.7-.27-2.25-.9l-6.31-7.3c-.08-.1-.17-.15-.27-.15-.15,0-.29.12-.29.32v7.79h-3.03V2.69c0-1.96,1.12-2.69,2.67-2.69,1.09,0,1.77.29,2.48,1.14l5.61,6.72c.08.12.19.14.29.14.14,0,.24-.1.24-.31V.26h3.01v9.27Z"/>
        <path class="cls-1" d="M117.78,11.76c-2.06,0-3.57-.71-4.63-1.87-.92-1-1.48-2.37-1.48-3.88,0-1.67.71-3.18,1.85-4.24,1.02-.94,2.4-1.51,4.25-1.51h2.42c1.85,0,3.23.58,4.25,1.51,1.14,1.06,1.85,2.57,1.85,4.24,0,1.51-.56,2.88-1.48,3.88-1.05,1.16-2.57,1.87-4.63,1.87h-2.42ZM117.78,3.3c-1.04,0-1.68.29-2.18.75-.53.49-.85,1.21-.85,1.97,0,.7.27,1.34.71,1.82.49.54,1.22.88,2.31.88h2.42c1.09,0,1.82-.34,2.31-.88.44-.48.71-1.12.71-1.82,0-.77-.32-1.48-.85-1.97-.49-.46-1.14-.75-2.18-.75h-2.42Z"/>
        <path class="cls-1" d="M133.64,11.76c-2.06,0-3.57-.71-4.63-1.87-.92-1-1.48-2.37-1.48-3.88,0-1.67.71-3.18,1.85-4.24,1.02-.94,2.4-1.51,4.25-1.51h2.42c1.85,0,3.23.58,4.25,1.51,1.14,1.06,1.85,2.57,1.85,4.24,0,1.51-.56,2.88-1.48,3.88-1.05,1.16-2.57,1.87-4.63,1.87h-2.42ZM133.64,3.3c-1.04,0-1.68.29-2.18.75-.53.49-.85,1.21-.85,1.97,0,.7.27,1.34.71,1.82.49.54,1.22.88,2.31.88h2.42c1.09,0,1.82-.34,2.31-.88.44-.48.71-1.12.71-1.82,0-.77-.32-1.48-.85-1.97-.49-.46-1.14-.75-2.18-.75h-2.42Z"/>
        <path class="cls-1" d="M146.72,11.76h-3.08V.97c0-.48.25-.71.77-.71h8.17c1.41,0,2.31.42,2.94,1.09.56.6.92,1.39.92,2.26,0,.92-.27,1.79-1.09,2.38.77.46,1.11,1.07,1.11,2.38v2.3c0,.49.02.77.05,1.09h-3.11c-.03-.25-.05-.51-.05-.77v-2.3c0-.73-.36-1.02-1.26-1.02h-5.36v4.08ZM152.16,5.05c.43,0,.68-.15.87-.37.14-.17.22-.38.22-.6,0-.24-.08-.48-.25-.65-.17-.19-.44-.31-.83-.31h-5.19c-.17,0-.26.1-.26.25v1.67h5.44Z"/>
      </g>
      <g>
        <path class="cls-1" d="M17.09,14.76c.46,0,.78.09.97.27.19.18.29.46.29.82v.32c0,.37-.14.65-.42.84.3.18.46.46.46.86v.38c0,.18-.02.34-.06.48-.04.14-.11.26-.2.36-.09.1-.21.18-.36.23-.15.05-.34.08-.56.08h-3.94c-.13,0-.2-.07-.2-.2v-4.24c0-.13.07-.2.2-.2h3.82ZM14.09,16.69h2.72c.22,0,.37-.03.45-.1.08-.07.12-.16.12-.29v-.22c0-.14-.04-.24-.12-.3s-.2-.1-.38-.1h-2.71c-.06,0-.09.03-.09.09v.93ZM14.09,17.42v.99c0,.06.03.09.09.09h2.72c.18,0,.3-.03.38-.1.08-.06.11-.17.11-.31v-.25c0-.14-.04-.24-.12-.31-.08-.07-.23-.11-.45-.11h-2.72Z"/>
        <path class="cls-1" d="M20.8,15.77c.1,0,.15.05.15.15v1.92c0,.14,0,.26.03.35.02.09.05.17.1.22.05.05.12.09.21.12.09.02.21.04.35.04h1.7c.15,0,.27-.01.36-.04s.17-.06.22-.12c.05-.06.09-.13.12-.22.02-.09.03-.21.03-.35v-1.92c0-.1.05-.15.15-.15h.65c.1,0,.15.05.15.15v2.15c0,.24-.03.44-.08.61-.05.17-.14.31-.26.42-.12.11-.28.19-.49.24-.2.05-.45.07-.75.07h-1.85c-.3,0-.55-.02-.75-.07-.2-.05-.36-.13-.48-.24-.12-.11-.21-.25-.26-.42-.05-.17-.08-.37-.08-.61v-2.15c0-.1.05-.15.15-.15h.65Z"/>
        <path class="cls-1" d="M27.5,14.42c.1,0,.15.05.15.15v.63c0,.1-.05.15-.15.15h-.65c-.1,0-.15-.05-.15-.15v-.63c0-.1.05-.15.15-.15h.65ZM27.5,15.77c.1,0,.15.05.15.15v3.34c0,.1-.05.15-.15.15h-.65c-.1,0-.15-.05-.15-.15v-3.34c0-.1.05-.15.15-.15h.65Z"/>
        <path class="cls-1" d="M30.16,14.43c.1,0,.15.05.15.15v4.68c0,.1-.05.15-.15.15h-.65c-.1,0-.15-.05-.15-.15v-4.68c0-.1.05-.15.15-.15h.65Z"/>
        <path class="cls-1" d="M36.04,15.77v-1.19c0-.1.05-.15.15-.15h.65c.1,0,.15.05.15.15v3.49c0,.24-.03.44-.08.61-.05.17-.14.31-.26.42-.12.11-.28.19-.49.24-.2.05-.45.07-.75.07h-1.86c-.3,0-.55-.02-.75-.07-.2-.05-.36-.13-.48-.24-.12-.11-.21-.25-.26-.42s-.08-.37-.08-.61v-.95c0-.24.03-.44.08-.61.05-.17.14-.31.26-.42.12-.11.28-.19.48-.24s.45-.08.75-.08h2.49ZM35.31,18.61c.15,0,.27-.01.36-.04.09-.02.17-.06.22-.12.06-.05.09-.13.12-.22.02-.09.03-.21.03-.35v-1.32h-2.4c-.14,0-.26.01-.35.04-.09.02-.17.06-.22.12s-.09.13-.12.22c-.02.1-.03.21-.03.35v.59c0,.14.01.26.03.35.02.09.06.17.12.22s.13.1.22.12c.09.02.21.04.35.04h1.67Z"/>
        <path class="cls-1" d="M39.48,14.42c.1,0,.15.05.15.15v.63c0,.1-.05.15-.15.15h-.65c-.1,0-.15-.05-.15-.15v-.63c0-.1.05-.15.15-.15h.65ZM39.48,15.77c.1,0,.15.05.15.15v3.34c0,.1-.05.15-.15.15h-.65c-.1,0-.15-.05-.15-.15v-3.34c0-.1.05-.15.15-.15h.65Z"/>
        <path class="cls-1" d="M44.79,15.77c.3,0,.55.03.75.08s.37.13.49.24c.12.11.21.25.26.42.05.17.08.37.08.61v2.15c0,.1-.05.15-.15.15h-.65c-.1,0-.15-.05-.15-.15v-1.92c0-.14,0-.25-.03-.35-.02-.1-.05-.17-.1-.23s-.12-.09-.21-.12c-.09-.02-.2-.04-.34-.04h-1.76c-.14,0-.26.01-.35.04s-.17.06-.22.12c-.05.06-.09.13-.12.23-.02.09-.03.21-.03.35v1.92c0,.1-.05.15-.15.15h-.65c-.1,0-.15-.05-.15-.15v-2.15c0-.24.03-.44.08-.61.05-.17.14-.31.26-.42.12-.11.28-.19.48-.24s.45-.08.75-.08h1.9Z"/>
        <path class="cls-1" d="M51.44,15.77c.3,0,.55.03.75.08.2.05.36.13.49.24.12.11.21.24.26.41s.08.37.08.61v2.41c0,.24-.03.45-.08.62s-.14.31-.26.42-.29.19-.49.24c-.2.05-.45.08-.75.08h-3.12c-.08,0-.12-.04-.12-.12v-.56c0-.08.04-.12.12-.12h3.03c.15,0,.27-.01.36-.04s.17-.06.22-.12c.06-.06.09-.13.12-.23.02-.09.03-.21.03-.35v-.17h-2.49c-.3,0-.55-.03-.75-.08s-.36-.13-.48-.24c-.12-.11-.21-.25-.26-.42s-.08-.38-.08-.62v-.7c0-.24.03-.45.08-.62.05-.17.14-.31.26-.42.12-.11.28-.19.48-.24s.45-.08.75-.08h1.86ZM48.96,17.81c0,.11.01.21.03.29.02.08.06.14.12.19.06.05.13.09.22.11.09.02.21.03.35.03h2.4v-1.24c0-.23-.05-.4-.15-.5-.1-.1-.29-.15-.58-.15h-1.67c-.14,0-.26.01-.35.03-.09.02-.17.06-.22.11-.05.05-.09.12-.12.2-.02.08-.03.17-.03.28v.64Z"/>
        <path class="cls-1" d="M62.62,14.76c.1,0,.15.05.15.15v.65c0,.1-.05.15-.15.15h-2.95c-.17,0-.31.01-.43.04-.11.03-.2.08-.27.15s-.11.16-.14.27c-.03.12-.04.26-.04.44v.94c0,.18.01.32.04.44.03.12.08.21.14.28s.16.12.27.15c.11.03.25.04.43.04h2.95c.1,0,.15.05.15.15v.65c0,.1-.05.15-.15.15h-2.99c-.33,0-.62-.03-.85-.09s-.42-.16-.57-.3c-.15-.14-.26-.32-.32-.54-.07-.22-.1-.49-.1-.81v-1.14c0-.32.03-.59.1-.81s.18-.4.32-.54c.15-.14.34-.24.57-.3.23-.06.52-.1.85-.1h2.99Z"/>
        <path class="cls-1" d="M67.72,15.77c.3,0,.54.03.75.08s.37.13.49.24.21.25.26.42c.05.17.08.37.08.61v.95c0,.24-.03.44-.08.61s-.14.31-.26.42c-.12.11-.28.19-.49.24-.2.05-.45.07-.75.07h-1.88c-.3,0-.55-.02-.75-.07-.2-.05-.36-.13-.48-.24-.12-.11-.21-.25-.26-.42s-.08-.37-.08-.61v-.95c0-.24.03-.44.08-.61.05-.17.14-.31.26-.42.12-.11.28-.19.48-.24s.45-.08.75-.08h1.88ZM65.22,17.9c0,.14.01.26.03.35.02.09.06.17.12.22.06.05.13.09.22.12s.21.04.35.04h1.69c.15,0,.26-.01.36-.04s.17-.06.22-.12.09-.13.12-.22.03-.21.03-.35v-.63c0-.14-.01-.25-.03-.34s-.06-.17-.12-.22c-.05-.06-.13-.1-.22-.12-.09-.02-.21-.03-.36-.03h-1.69c-.14,0-.26.01-.35.03-.09.02-.17.06-.22.12-.05.06-.09.13-.12.22-.02.09-.03.21-.03.34v.63Z"/>
        <path class="cls-1" d="M74.41,15.77c.3,0,.55.03.75.08s.37.13.49.24c.12.11.21.25.26.42.05.17.08.37.08.61v2.15c0,.1-.05.15-.15.15h-.65c-.1,0-.15-.05-.15-.15v-1.92c0-.14,0-.25-.03-.35-.02-.1-.05-.17-.1-.23s-.12-.09-.21-.12c-.09-.02-.2-.04-.34-.04h-1.76c-.14,0-.26.01-.35.04s-.17.06-.22.12c-.05.06-.09.13-.12.23-.02.09-.03.21-.03.35v1.92c0,.1-.05.15-.15.15h-.65c-.1,0-.15-.05-.15-.15v-2.15c0-.24.03-.44.08-.61.05-.17.14-.31.26-.42.12-.11.28-.19.48-.24s.45-.08.75-.08h1.9Z"/>
        <path class="cls-1" d="M78.13,15.77v-.88c0-.1.05-.15.15-.15h.66c.1,0,.15.05.15.15v.88h1.16c.08,0,.12.04.12.12v.54c0,.08-.04.12-.12.12h-1.16v1.54c0,.19.04.32.11.41s.22.13.44.13h.64c.08,0,.12.04.12.12v.54c0,.08-.04.12-.12.12h-.8c-.27,0-.48-.02-.66-.07-.17-.05-.31-.13-.41-.23-.1-.11-.18-.24-.22-.41s-.06-.37-.06-.6v-1.54h-.63c-.08,0-.12-.04-.12-.12v-.54c0-.08.04-.12.12-.12h.63Z"/>
        <path class="cls-1" d="M85.22,15.77c.08,0,.12.04.12.12v.56c0,.08-.04.12-.12.12h-1.76c-.14,0-.26.01-.35.04-.09.02-.17.06-.22.12s-.09.13-.12.22c-.02.1-.03.21-.03.35v1.97c0,.1-.05.15-.15.15h-.65c-.1,0-.15-.05-.15-.15v-2.15c0-.24.03-.44.08-.61.05-.17.14-.31.26-.42.12-.11.28-.19.48-.24s.45-.08.75-.08h1.86Z"/>
        <path class="cls-1" d="M89.69,15.77c.3,0,.55.03.75.08s.37.13.49.24c.12.11.21.25.26.42.05.17.08.37.08.61v1.76c0,.11,0,.19-.02.26-.01.07-.04.12-.08.16-.04.04-.09.07-.15.08-.06.02-.14.02-.24.02h-3.15c-.19,0-.36-.02-.49-.06-.13-.04-.23-.09-.31-.17-.08-.08-.14-.17-.17-.29s-.05-.26-.05-.42v-.32c0-.14.02-.26.05-.37s.09-.2.17-.27c.08-.08.18-.13.31-.17.13-.04.29-.06.49-.06h2.7v-.13c0-.11-.01-.2-.03-.27-.02-.08-.06-.14-.11-.18-.05-.05-.13-.08-.22-.1s-.21-.03-.36-.03h-2.77c-.08,0-.12-.04-.12-.12v-.56c0-.08.04-.12.12-.12h2.86ZM90.13,18.67c.07,0,.12-.02.15-.05.03-.03.04-.09.04-.18v-.58h-2.43c-.14,0-.23.03-.29.08s-.08.14-.08.24v.14c0,.12.03.21.08.26.06.05.15.08.29.08h2.23Z"/>
        <path class="cls-1" d="M96.93,15.77c.08,0,.12.04.12.12v.56c0,.08-.04.12-.12.12h-2.57c-.15,0-.27.01-.36.04-.09.02-.17.06-.22.12-.05.05-.09.13-.11.22-.02.1-.03.21-.03.35v.59c0,.14.01.26.03.35.02.09.06.17.11.22.05.06.13.1.22.12.09.02.21.04.36.04h2.57c.08,0,.12.04.12.12v.56c0,.08-.04.12-.12.12h-2.66c-.3,0-.55-.02-.75-.07-.2-.05-.36-.13-.48-.24-.12-.11-.21-.25-.26-.42s-.08-.37-.08-.61v-.95c0-.24.03-.44.08-.61.05-.17.14-.31.26-.42s.28-.19.48-.24c.2-.05.45-.08.75-.08h2.66Z"/>
        <path class="cls-1" d="M99,15.77v-.88c0-.1.05-.15.15-.15h.66c.1,0,.15.05.15.15v.88h1.16c.08,0,.12.04.12.12v.54c0,.08-.04.12-.12.12h-1.16v1.54c0,.19.04.32.11.41s.22.13.44.13h.64c.08,0,.12.04.12.12v.54c0,.08-.04.12-.12.12h-.8c-.27,0-.48-.02-.66-.07-.17-.05-.31-.13-.41-.23-.1-.11-.18-.24-.22-.41s-.06-.37-.06-.6v-1.54h-.63c-.08,0-.12-.04-.12-.12v-.54c0-.08.04-.12.12-.12h.63Z"/>
        <path class="cls-1" d="M103.48,14.42c.1,0,.15.05.15.15v.63c0,.1-.05.15-.15.15h-.65c-.1,0-.15-.05-.15-.15v-.63c0-.1.05-.15.15-.15h.65ZM103.48,15.77c.1,0,.15.05.15.15v3.34c0,.1-.05.15-.15.15h-.65c-.1,0-.15-.05-.15-.15v-3.34c0-.1.05-.15.15-.15h.65Z"/>
        <path class="cls-1" d="M108.8,15.77c.3,0,.55.03.75.08s.37.13.49.24c.12.11.21.25.26.42.05.17.08.37.08.61v2.15c0,.1-.05.15-.15.15h-.65c-.1,0-.15-.05-.15-.15v-1.92c0-.14,0-.25-.03-.35-.02-.1-.05-.17-.1-.23s-.12-.09-.21-.12c-.09-.02-.2-.04-.34-.04h-1.76c-.14,0-.26.01-.35.04s-.17.06-.22.12c-.05.06-.09.13-.12.23-.02.09-.03.21-.03.35v1.92c0,.1-.05.15-.15.15h-.65c-.1,0-.15-.05-.15-.15v-2.15c0-.24.03-.44.08-.61.05-.17.14-.31.26-.42.12-.11.28-.19.48-.24s.45-.08.75-.08h1.9Z"/>
        <path class="cls-1" d="M115.45,15.77c.3,0,.55.03.75.08.2.05.36.13.49.24.12.11.21.24.26.41s.08.37.08.61v2.41c0,.24-.03.45-.08.62s-.14.31-.26.42-.29.19-.49.24c-.2.05-.45.08-.75.08h-3.12c-.08,0-.12-.04-.12-.12v-.56c0-.08.04-.12.12-.12h3.03c.15,0,.27-.01.36-.04s.17-.06.22-.12c.06-.06.09-.13.12-.23.02-.09.03-.21.03-.35v-.17h-2.49c-.3,0-.55-.03-.75-.08s-.36-.13-.48-.24c-.12-.11-.21-.25-.26-.42s-.08-.38-.08-.62v-.7c0-.24.03-.45.08-.62.05-.17.14-.31.26-.42.12-.11.28-.19.48-.24s.45-.08.75-.08h1.86ZM112.96,17.81c0,.11.01.21.03.29.02.08.06.14.12.19.06.05.13.09.22.11.09.02.21.03.35.03h2.4v-1.24c0-.23-.05-.4-.15-.5-.1-.1-.29-.15-.58-.15h-1.67c-.14,0-.26.01-.35.03-.09.02-.17.06-.22.11-.05.05-.09.12-.12.2-.02.08-.03.17-.03.28v.64Z"/>
        <path class="cls-1" d="M122.69,14.76c.1,0,.15.05.15.15v2.64c0,.18.01.32.04.44.03.12.08.21.14.28.07.07.16.12.27.15.11.03.25.04.43.04h2.68c.1,0,.15.05.15.15v.65c0,.1-.05.15-.15.15h-2.72c-.34,0-.62-.03-.85-.09s-.43-.16-.57-.3c-.15-.14-.26-.32-.33-.54-.07-.22-.1-.49-.1-.81v-2.74c0-.1.05-.15.15-.15h.72Z"/>
        <path class="cls-1" d="M128.79,18.48c.1,0,.15.05.15.15v.64c0,.1-.05.15-.15.15h-.65c-.1,0-.15-.05-.15-.15v-.64c0-.1.05-.15.15-.15h.65Z"/>
        <path class="cls-1" d="M131.38,14.76c.1,0,.15.05.15.15v2.64c0,.18.01.32.04.44.03.12.08.21.14.28.07.07.16.12.27.15.11.03.25.04.43.04h2.68c.1,0,.15.05.15.15v.65c0,.1-.05.15-.15.15h-2.72c-.34,0-.62-.03-.85-.09s-.43-.16-.57-.3c-.15-.14-.26-.32-.33-.54-.07-.22-.1-.49-.1-.81v-2.74c0-.1.05-.15.15-.15h.72Z"/>
        <path class="cls-1" d="M137.49,18.48c.1,0,.15.05.15.15v.64c0,.1-.05.15-.15.15h-.65c-.1,0-.15-.05-.15-.15v-.64c0-.1.05-.15.15-.15h.65Z"/>
        <path class="cls-1" d="M144.01,14.76c.1,0,.15.05.15.15v.65c0,.1-.05.15-.15.15h-2.95c-.17,0-.31.01-.43.04-.11.03-.2.08-.27.15s-.11.16-.14.27c-.03.12-.04.26-.04.44v.94c0,.18.01.32.04.44.03.12.08.21.14.28s.16.12.27.15c.11.03.25.04.43.04h2.95c.1,0,.15.05.15.15v.65c0,.1-.05.15-.15.15h-2.99c-.33,0-.62-.03-.85-.09s-.42-.16-.57-.3c-.15-.14-.26-.32-.32-.54-.07-.22-.1-.49-.1-.81v-1.14c0-.32.03-.59.1-.81s.18-.4.32-.54c.15-.14.34-.24.57-.3.23-.06.52-.1.85-.1h2.99Z"/>
      </g>
    </g>
  </g>
</svg>